<svg width="93" height="183" viewBox="0 0 93 183" fill="none" xmlns="http://www.w3.org/2000/svg">
<path d="M85.427 40.2044C85.355 40.2044 85.284 40.2014 85.21 40.1964C83.712 40.0784 82.593 38.7684 82.712 37.2694C84.28 17.3904 67.914 7.96439 53.422 5.93239C51.786 5.70039 50.047 5.54739 48.249 5.47539C46.609 5.41639 44.971 5.43439 43.386 5.53639C41.639 5.63139 39.909 5.82139 38.218 6.10339C23.568 8.48439 8.46896 17.9204 9.99396 37.2694C10.112 38.7684 8.99296 40.0784 7.49396 40.1964C6.00296 40.3134 4.68496 39.1954 4.56696 37.6974C3.07196 18.7204 15.934 4.21039 37.334 0.733389C39.211 0.420389 41.144 0.207388 43.066 0.103388C44.809 -0.00761172 46.633 -0.0286098 48.458 0.0373902C50.446 0.11639 52.369 0.286387 54.183 0.543387C71.011 2.90339 90.004 14.0494 88.138 37.6974C88.026 39.1224 86.833 40.2044 85.427 40.2044Z" fill="#2D2D2D"/>
<path d="M85.424 37.4834L83.773 58.3754H8.93096L7.27996 37.4834C5.71096 17.5704 20.579 6.21339 37.77 3.41939C39.566 3.12039 41.381 2.92039 43.213 2.82039C44.928 2.71139 46.642 2.69339 48.357 2.75739C50.18 2.83039 52.004 2.98439 53.8 3.23839C71.463 5.71339 87.03 17.1354 85.424 37.4834Z" fill="#D11207"/>
<path d="M53.8 182.486C52.004 182.704 50.18 182.849 48.357 182.903C46.642 182.967 44.928 182.948 43.213 182.858C41.38 182.767 39.566 182.595 37.77 182.332C20.706 179.901 5.90996 170.085 7.11696 152.885L8.93096 126.994H83.7729L85.5869 152.885C86.8209 170.466 71.336 180.327 53.8 182.486Z" fill="#D11207"/>
<path d="M7.05296 154.644C6.98496 164.648 12.4959 171.996 20.6289 176.693C17.8429 167.832 14.377 159.323 7.05296 154.644Z" fill="#232323"/>
<path d="M85.6559 154.644C85.7239 164.648 80.213 171.996 72.08 176.693C74.866 167.832 78.3319 159.323 85.6559 154.644Z" fill="#232323"/>
<path d="M83.7729 50.1114H8.93095V147.457H83.7729V50.1114Z" fill="#D11207"/>
<path d="M75.767 63.4734H16.937L22.398 15.2214C22.543 13.3434 23.741 11.7464 25.673 10.4404C34.427 4.48939 58.259 4.48939 67.022 10.4314C68.954 11.7374 70.161 13.3344 70.306 15.2214L75.767 63.4734Z" fill="#F71616"/>
<path opacity="0.2" d="M75.767 63.4734H16.937L22.398 15.2214C22.543 13.3434 23.741 11.7464 25.673 10.4404C34.427 4.48939 58.259 4.48939 67.022 10.4314C68.954 11.7374 70.161 13.3344 70.306 15.2214L75.767 63.4734Z" fill="url(#paint0_linear_1_115)"/>
<path d="M14.628 110.589H78.076C78.076 177.115 70.382 177.115 46.666 177.115C21.679 177.116 14.628 177.116 14.628 110.589Z" fill="#BF0202"/>
<path opacity="0.5" d="M37.77 172.542V182.332C39.566 182.595 41.381 182.767 43.213 182.858V172.542C41.379 172.412 39.56 172.916 37.77 172.542Z" fill="#FBFBFB"/>
<path opacity="0.5" d="M48.357 172.52V182.903C50.18 182.849 52.004 182.703 53.8 182.486V172.315C52.003 172.647 50.183 172.425 48.357 172.52Z" fill="#FBFBFB"/>
<path d="M74.1569 137.499C73.7669 145.029 19.055 145.029 18.674 137.499C14.456 115.482 13.5939 91.1604 14.9909 65.2704C14.6919 59.2924 25.079 55.7454 37.498 54.6114C44.311 53.9854 51.741 54.0944 58.345 54.9374C69.376 56.3434 78.112 59.7814 77.831 65.2704C79.056 90.6894 78.0849 114.91 74.1569 137.499Z" fill="#484D51"/>
<path opacity="0.2" d="M61.275 79.7214H35.429L37.497 54.6104C44.31 53.9844 51.74 54.0934 58.344 54.9364L61.275 79.7214Z" fill="url(#paint1_linear_1_115)"/>
<path d="M25.0579 80.4884L17.126 60.5684C15.316 59.8634 13.3509 62.2824 14.5599 65.1774L22.1679 83.6864L25.0579 80.4884Z" fill="#B90A0C"/>
<path d="M68.11 80.5604L75.578 60.5684C77.388 59.8634 79.353 62.2824 78.144 65.1774L70.6649 83.2684L68.11 80.5604Z" fill="#B90A0C"/>
<path d="M20.965 144.279V140.225H71.7379V144.279C71.7379 170.462 59.045 172.899 46.351 172.899C33.659 172.899 20.965 172.315 20.965 144.279Z" fill="#232323"/>
<path d="M71.735 87.4964V139.123C71.735 140.393 70.665 141.464 69.222 141.718C69.004 141.754 68.786 141.772 68.56 141.772H24.145C23.918 141.772 23.7 141.754 23.483 141.718C22.041 141.464 20.97 140.393 20.97 139.123V87.4964C20.97 85.2644 21.895 83.3324 23.492 81.7174C24.671 80.4924 26.232 79.4404 28.055 78.5604C32.591 76.3834 38.7869 75.2224 45.0919 75.0954C45.9359 75.0774 46.77 75.0774 47.614 75.0954C53.919 75.2224 60.115 76.3834 64.651 78.5604C66.474 79.4404 68.035 80.4924 69.214 81.7174C70.81 83.3324 71.735 85.2644 71.735 87.4964Z" fill="#F71616"/>
<path opacity="0.2" d="M69.222 81.8804V141.772H23.482V81.8804C23.482 81.8264 23.482 81.7714 23.491 81.7174C24.67 80.4924 26.231 79.4404 28.054 78.5604C32.59 76.3834 38.786 75.2224 45.091 75.0954C45.935 75.0774 46.7689 75.0774 47.6129 75.0954C53.9179 75.2224 60.114 76.3834 64.65 78.5604C66.473 79.4404 68.034 80.4924 69.213 81.7174C69.222 81.7714 69.222 81.8264 69.222 81.8804Z" fill="url(#paint2_linear_1_115)"/>
<path d="M0.463962 71.6904L11.202 69.0604L10.845 67.6034C10.359 65.6174 8.35397 64.4014 6.36797 64.8874L2.82296 65.7554C0.836956 66.2414 -0.379032 68.2464 0.106968 70.2324L0.463962 71.6904Z" fill="#F71616"/>
<path d="M0.463959 71.6904L11.202 69.0604L11.389 69.8254C11.429 69.9894 11.329 70.1544 11.165 70.1954L1.02097 72.6794C0.856966 72.7194 0.691955 72.6194 0.650955 72.4554L0.463959 71.6904Z" fill="#4D4D4D"/>
<path d="M12.51 69.5644C13.172 69.5714 13.229 64.3474 12.567 64.3394L11.35 64.5614C10.741 64.6724 10.351 65.2734 10.499 65.8754L11.209 68.7754C11.351 69.3534 11.933 69.7064 12.51 69.5644Z" fill="#F71616"/>
<path d="M11.823 67.4974C11.823 68.2454 11.216 68.8524 10.468 68.8524C9.71996 68.8524 9.11296 68.2464 9.11296 67.4974C9.11296 66.7494 9.71896 66.1424 10.468 66.1424C11.217 66.1424 11.823 66.7494 11.823 67.4974Z" fill="#F71616"/>
<path d="M92.1479 71.6904L81.41 69.0604L81.767 67.6034C82.253 65.6174 84.258 64.4014 86.244 64.8874L89.789 65.7554C91.775 66.2414 92.9909 68.2464 92.5049 70.2324L92.1479 71.6904Z" fill="#F71616"/>
<path d="M92.1479 71.6904L81.41 69.0604L81.2229 69.8254C81.1829 69.9894 81.2829 70.1544 81.4469 70.1954L91.591 72.6794C91.755 72.7194 91.92 72.6194 91.961 72.4554L92.1479 71.6904Z" fill="#4D4D4D"/>
<path d="M80.102 69.5644C79.127 69.5754 79.07 64.3504 80.045 64.3394L81.262 64.5614C81.871 64.6724 82.2609 65.2734 82.1129 65.8754L81.403 68.7754C81.261 69.3534 80.679 69.7064 80.102 69.5644Z" fill="#F71616"/>
<path d="M82.992 67.9814C82.992 68.7294 82.385 69.3364 81.637 69.3364C80.889 69.3364 80.282 68.7294 80.282 67.9814C80.282 67.2334 80.889 66.6264 81.637 66.6264C82.386 66.6264 82.992 67.2324 82.992 67.9814Z" fill="#F71616"/>
<g opacity="0.5">
<path opacity="0.5" d="M12.986 35.4294C12.986 43.6774 13.467 57.0164 12.347 57.0164C11.227 57.0164 8.93095 43.6774 8.93095 35.4294C8.93095 27.1814 11.227 27.1484 12.347 27.1484C13.467 27.1484 12.986 27.1814 12.986 35.4294Z" fill="url(#paint3_linear_1_115)"/>
<path opacity="0.5" d="M79.718 35.4294C79.718 43.6774 79.237 57.0164 80.357 57.0164C81.477 57.0164 83.7729 43.6774 83.7729 35.4294C83.7729 27.1814 81.477 27.1484 80.357 27.1484C79.237 27.1484 79.718 27.1814 79.718 35.4294Z" fill="url(#paint4_linear_1_115)"/>
</g>
<path d="M81.637 101.82C81.003 101.82 80.4879 101.306 80.4879 100.671V94.3504C80.4879 93.7164 81.002 93.2014 81.637 93.2014C82.271 93.2014 82.7859 93.7154 82.7859 94.3504V100.671C82.7859 101.306 82.272 101.82 81.637 101.82Z" fill="#E5E5E5"/>
<path d="M11.752 101.82C11.118 101.82 10.603 101.306 10.603 100.671V94.3504C10.603 93.7164 11.117 93.2014 11.752 93.2014C12.387 93.2014 12.901 93.7154 12.901 94.3504V100.671C12.901 101.306 12.387 101.82 11.752 101.82Z" fill="#E5E5E5"/>
<path d="M16.898 60.5684C17.333 60.4074 31.735 47.6924 31.735 47.6924L35.554 7.64539L34.344 48.9024L26.179 56.1304L16.898 60.5684Z" fill="#D11207"/>
<path d="M75.806 60.5684C75.371 60.4074 60.969 47.6924 60.969 47.6924L57.15 7.64539L58.36 48.9024L66.525 56.1304L75.806 60.5684Z" fill="#D11207"/>
<g opacity="0.5">
<path d="M43.213 54.2654V2.8194C41.38 2.9194 39.566 3.1184 37.77 3.4184V54.5874C39.585 54.3244 41.4 54.3644 43.213 54.2654Z" fill="#FBFBFB"/>
<path d="M43.213 141.772V75.1644C41.398 75.2564 39.14 75.4594 37.77 75.7274V141.772H43.213Z" fill="#FBFBFB"/>
<path d="M53.8 54.4854V3.23739C52.004 2.98339 50.18 2.82939 48.357 2.75639V54.2154C50.174 54.2584 51.989 54.3054 53.8 54.4854Z" fill="#FBFBFB"/>
<path d="M53.8 141.772V75.5624C52.054 75.3584 50.323 75.1644 48.357 75.1144C48.357 75.1144 48.357 141.704 48.357 141.775C48.357 141.845 53.8 141.772 53.8 141.772Z" fill="#FBFBFB"/>
</g>
<path d="M58.7509 108.427H33.953C32.784 108.427 31.837 107.48 31.837 106.311V90.6564C31.837 89.4874 32.784 88.5404 33.953 88.5404H58.7509C59.9199 88.5404 60.867 89.4874 60.867 90.6564V106.311C60.867 107.48 59.9199 108.427 58.7509 108.427Z" fill="#191917"/>
<path d="M58.09 107.282H34.614C33.547 107.282 32.682 106.417 32.682 105.35V91.6184C32.682 90.5514 33.547 89.6864 34.614 89.6864H58.09C59.157 89.6864 60.022 90.5514 60.022 91.6184V105.35C60.022 106.417 59.157 107.282 58.09 107.282Z" fill="#484D51"/>
<path d="M11.01 24.2564C11.01 24.2564 13.277 26.9784 15.393 25.0124C17.51 23.0474 22.009 14.4284 20.969 13.0684C19.929 11.7074 11.877 18.4334 11.01 24.2564Z" fill="#FBFBFB"/>
<path d="M11.01 24.2564C11.01 24.2564 13.277 26.9784 15.393 25.0124C17.51 23.0474 22.009 14.4284 20.969 13.0684C19.929 11.7074 11.877 18.4334 11.01 24.2564Z" fill="#FBFBFB"/>
<path d="M81.848 24.2564C81.848 24.2564 79.581 26.9784 77.465 25.0124C75.348 23.0474 70.8489 14.4284 71.8889 13.0684C72.9289 11.7074 80.981 18.4334 81.848 24.2564Z" fill="#FBFBFB"/>
<path opacity="0.2" d="M23.482 143.853C23.667 147.127 23.805 150.413 24.566 153.562C25.268 156.704 26.497 159.74 28.496 162.167C30.489 164.593 33.198 166.344 36.198 167.296C39.179 168.314 42.398 168.632 45.595 168.648C48.79 168.643 51.998 168.288 54.987 167.276C57.999 166.327 60.717 164.598 62.879 162.308C65.032 160 66.5669 157.119 67.5529 154.053C68.5889 150.988 69.016 147.727 69.222 144.457C69.426 147.732 69.181 151.057 68.408 154.298C67.598 157.519 66.167 160.669 63.934 163.251C61.73 165.849 58.753 167.784 55.547 168.9C52.335 170.042 48.935 170.426 45.593 170.461C43.92 170.422 42.241 170.359 40.572 170.098C38.904 169.87 37.239 169.497 35.637 168.914C32.431 167.797 29.426 165.805 27.386 163.038C25.302 160.3 24.209 156.998 23.697 153.726C23.215 150.429 23.26 147.122 23.482 143.853Z" fill="#A3A3A3"/>
<defs>
<linearGradient id="paint0_linear_1_115" x1="68.332" y1="16.3052" x2="25.9969" y2="65.2929" gradientUnits="userSpaceOnUse">
<stop stop-color="white"/>
<stop offset="0.0653" stop-color="#FEE3E3"/>
<stop offset="0.2794" stop-color="#FB8C8C"/>
<stop offset="0.4542" stop-color="#F94C4C"/>
<stop offset="0.581" stop-color="#F82525"/>
<stop offset="0.6468" stop-color="#F71616"/>
<stop offset="0.725" stop-color="#F71919"/>
<stop offset="0.7762" stop-color="#F62121"/>
<stop offset="0.8198" stop-color="#F53030"/>
<stop offset="0.859" stop-color="#F34646"/>
<stop offset="0.8954" stop-color="#F06161"/>
<stop offset="0.9296" stop-color="#ED8383"/>
<stop offset="0.9622" stop-color="#E9ABAB"/>
<stop offset="0.9927" stop-color="#E5D8D8"/>
<stop offset="1" stop-color="#E4E4E4"/>
</linearGradient>
<linearGradient id="paint1_linear_1_115" x1="35.4298" y1="66.9662" x2="61.2753" y2="66.9662" gradientUnits="userSpaceOnUse">
<stop stop-color="white"/>
<stop offset="0.1856" stop-color="#C4C4C4"/>
<stop offset="0.4039" stop-color="#858585"/>
<stop offset="0.5638" stop-color="#5E5E5E"/>
<stop offset="0.6468" stop-color="#4F4F4F"/>
<stop offset="0.7343" stop-color="#525252"/>
<stop offset="0.7916" stop-color="#5A5A5A"/>
<stop offset="0.8404" stop-color="#696969"/>
<stop offset="0.8843" stop-color="#7F7F7F"/>
<stop offset="0.925" stop-color="#9A9A9A"/>
<stop offset="0.9628" stop-color="#BBBBBB"/>
<stop offset="0.9986" stop-color="#E2E2E2"/>
<stop offset="1" stop-color="#E4E4E4"/>
</linearGradient>
<linearGradient id="paint2_linear_1_115" x1="23.4822" y1="108.427" x2="69.2222" y2="108.427" gradientUnits="userSpaceOnUse">
<stop stop-color="white"/>
<stop offset="0.0653" stop-color="#FEE3E3"/>
<stop offset="0.2794" stop-color="#FB8C8C"/>
<stop offset="0.4542" stop-color="#F94C4C"/>
<stop offset="0.581" stop-color="#F82525"/>
<stop offset="0.6468" stop-color="#F71616"/>
<stop offset="0.725" stop-color="#F71919"/>
<stop offset="0.7762" stop-color="#F62121"/>
<stop offset="0.8198" stop-color="#F53030"/>
<stop offset="0.859" stop-color="#F34646"/>
<stop offset="0.8954" stop-color="#F06161"/>
<stop offset="0.9296" stop-color="#ED8383"/>
<stop offset="0.9622" stop-color="#E9ABAB"/>
<stop offset="0.9927" stop-color="#E5D8D8"/>
<stop offset="1" stop-color="#E4E4E4"/>
</linearGradient>
<linearGradient id="paint3_linear_1_115" x1="11.3391" y1="19.772" x2="10.8108" y2="56.1242" gradientUnits="userSpaceOnUse">
<stop stop-color="white"/>
<stop offset="0.9964" stop-color="#F00031"/>
</linearGradient>
<linearGradient id="paint4_linear_1_115" x1="81.365" y1="19.772" x2="81.8933" y2="56.1242" gradientUnits="userSpaceOnUse">
<stop stop-color="white"/>
<stop offset="0.9964" stop-color="#F00031"/>
</linearGradient>
</defs>
</svg>
