<svg width="500" height="700" viewBox="0 0 500 700" fill="none" xmlns="http://www.w3.org/2000/svg">
<path d="M477.209 0H22.792V700H477.209V0Z" fill="#575757"/>
<path d="M22.792 0H0V700H22.792V0Z" fill="#474747"/>
<path d="M500 0H477.208V700H500V0Z" fill="#474747"/>
<path d="M481.208 0H477.208V700H481.208V0Z" fill="white"/>
<path d="M22.792 0H18.792V700H22.792V0Z" fill="white"/>
<path d="M16.158 0H5.146V700H16.158V0Z" fill="white"/>
<mask id="mask0_1_6" style="mask-type:luminance" maskUnits="userSpaceOnUse" x="5" y="0" width="12" height="700">
<path d="M16.158 0H5.146V700H16.158V0Z" fill="white"/>
</mask>
<g mask="url(#mask0_1_6)">
<path d="M-11.271 20.7831V5.36628L35.241 -16.3491V-0.933719L-11.271 20.7831Z" fill="#981214"/>
<path d="M-11.271 51.6572V36.2418L35.241 14.525V29.9418L-11.271 51.6572Z" fill="#981214"/>
<path d="M-11.271 82.7513V67.3345L35.241 45.6177V61.0345L-11.271 82.7513Z" fill="#981214"/>
<path d="M-11.271 113.625V98.2084L35.241 76.493V91.9084L-11.271 113.625Z" fill="#981214"/>
<path d="M-11.271 144.48V129.063L35.241 107.346V122.763L-11.271 144.48Z" fill="#981214"/>
<path d="M-11.271 175.354V159.937L35.241 138.222V153.637L-11.271 175.354Z" fill="#981214"/>
<path d="M-11.271 206.447V191.031L35.241 169.315V184.731L-11.271 206.447Z" fill="#981214"/>
<path d="M-11.271 237.322V221.906L35.241 200.189V215.606L-11.271 237.322Z" fill="#981214"/>
<path d="M-11.271 268.414V252.997L35.241 231.281V246.697L-11.271 268.414Z" fill="#981214"/>
<path d="M-11.271 299.288V283.872L35.241 262.156V277.572L-11.271 299.288Z" fill="#981214"/>
<path d="M-11.271 330.382V314.965L35.241 293.248V308.665L-11.271 330.382Z" fill="#981214"/>
<path d="M-11.271 361.256V345.839L35.241 324.124V339.539L-11.271 361.256Z" fill="#981214"/>
<path d="M-11.271 392.111V376.694L35.241 354.977V370.394L-11.271 392.111Z" fill="#981214"/>
<path d="M-11.271 422.985V407.568L35.241 385.853V401.268L-11.271 422.985Z" fill="#981214"/>
<path d="M-11.271 454.078V438.662L35.241 416.945V432.362L-11.271 454.078Z" fill="#981214"/>
<path d="M-11.271 484.953V469.536L35.241 447.82V463.236L-11.271 484.953Z" fill="#981214"/>
<path d="M-11.271 515.313V499.897L35.241 478.18V493.597L-11.271 515.313Z" fill="#981214"/>
<path d="M-11.271 546.188V530.771L35.241 509.055V524.471L-11.271 546.188Z" fill="#981214"/>
<path d="M-11.271 577.282V561.865L35.241 540.148V555.565L-11.271 577.282Z" fill="#981214"/>
<path d="M-11.271 608.156V592.739L35.241 571.022V586.439L-11.271 608.156Z" fill="#981214"/>
<path d="M-11.271 639.009V623.594L35.241 601.877V617.294L-11.271 639.009Z" fill="#981214"/>
<path d="M-11.271 669.885V654.468L35.241 632.751V648.168L-11.271 669.885Z" fill="#981214"/>
<path d="M-11.271 700.977V685.56L35.241 663.845V679.26L-11.271 700.977Z" fill="#981214"/>
<path d="M-11.271 731.853V716.436L35.241 694.719V710.136L-11.271 731.853Z" fill="#981214"/>
</g>
<path d="M494.854 0H483.842V700H494.854V0Z" fill="white"/>
<mask id="mask1_1_6" style="mask-type:luminance" maskUnits="userSpaceOnUse" x="483" y="0" width="12" height="700">
<path d="M494.854 0H483.842V700H494.854V0Z" fill="white"/>
</mask>
<g mask="url(#mask1_1_6)">
<path d="M467.426 20.7831V5.36628L513.938 -16.3491V-0.933719L467.426 20.7831Z" fill="#981214"/>
<path d="M467.426 51.6572V36.2418L513.938 14.525V29.9418L467.426 51.6572Z" fill="#981214"/>
<path d="M467.426 82.7513V67.3345L513.938 45.6177V61.0345L467.426 82.7513Z" fill="#981214"/>
<path d="M467.426 113.625V98.2084L513.938 76.493V91.9084L467.426 113.625Z" fill="#981214"/>
<path d="M467.426 144.48V129.063L513.938 107.346V122.763L467.426 144.48Z" fill="#981214"/>
<path d="M467.426 175.354V159.937L513.938 138.222V153.637L467.426 175.354Z" fill="#981214"/>
<path d="M467.426 206.447V191.031L513.938 169.315V184.731L467.426 206.447Z" fill="#981214"/>
<path d="M467.426 237.322V221.906L513.938 200.189V215.606L467.426 237.322Z" fill="#981214"/>
<path d="M467.426 268.414V252.997L513.938 231.281V246.697L467.426 268.414Z" fill="#981214"/>
<path d="M467.426 299.288V283.872L513.938 262.156V277.572L467.426 299.288Z" fill="#981214"/>
<path d="M467.426 330.382V314.965L513.938 293.248V308.665L467.426 330.382Z" fill="#981214"/>
<path d="M467.426 361.256V345.839L513.938 324.124V339.539L467.426 361.256Z" fill="#981214"/>
<path d="M467.426 392.111V376.694L513.938 354.977V370.394L467.426 392.111Z" fill="#981214"/>
<path d="M467.426 422.985V407.568L513.938 385.853V401.268L467.426 422.985Z" fill="#981214"/>
<path d="M467.426 454.078V438.662L513.938 416.945V432.362L467.426 454.078Z" fill="#981214"/>
<path d="M467.426 484.953V469.536L513.938 447.82V463.236L467.426 484.953Z" fill="#981214"/>
<path d="M467.426 515.313V499.897L513.938 478.18V493.597L467.426 515.313Z" fill="#981214"/>
<path d="M467.426 546.188V530.771L513.938 509.055V524.471L467.426 546.188Z" fill="#981214"/>
<path d="M467.426 577.282V561.865L513.938 540.148V555.565L467.426 577.282Z" fill="#981214"/>
<path d="M467.426 608.156V592.739L513.938 571.022V586.439L467.426 608.156Z" fill="#981214"/>
<path d="M467.426 639.009V623.594L513.938 601.877V617.294L467.426 639.009Z" fill="#981214"/>
<path d="M467.426 669.885V654.468L513.938 632.751V648.168L467.426 669.885Z" fill="#981214"/>
<path d="M467.426 700.977V685.56L513.938 663.845V679.26L467.426 700.977Z" fill="#981214"/>
<path d="M467.426 731.853V716.436L513.938 694.719V710.136L467.426 731.853Z" fill="#981214"/>
</g>
<g opacity="0.4">
<path d="M430.452 610.49C430.448 612.793 430.443 615.097 430.438 617.4C430.508 615.555 430.797 613.731 431.288 612.038C431.308 614.79 431.328 617.543 431.348 620.295C431.545 617.453 432.012 614.656 432.731 612.013C432.895 619.212 433.06 626.41 433.224 633.609C433.607 626.87 434.065 620.14 434.596 613.424C434.729 614.065 434.862 614.708 434.994 615.349C435.005 614.988 435.017 614.625 435.028 614.264C435.114 615.433 435.2 616.602 435.286 617.772C435.447 616.293 435.609 614.811 435.77 613.332C435.96 614.807 436.078 616.304 436.124 617.806C436.176 616.515 436.228 615.224 436.28 613.934C436.588 616.843 436.755 619.786 436.779 622.731C436.934 619.861 437.088 616.993 437.243 614.123C437.293 613.186 437.436 612.056 438.021 611.736C438.644 621.76 438.929 631.831 438.875 641.899C439.317 634.935 439.759 627.971 440.202 621.008C440.387 618.101 440.575 615.168 441.171 612.391C441.895 617.032 442.215 631.84 442.559 637.393C443.247 629.831 443.721 617.098 444.104 612.259C444.634 616.346 444.824 620.532 444.668 624.69C445.135 620.522 445.601 616.356 446.068 612.188C446.335 615.797 446.463 619.43 446.45 623.062C447.149 619.619 447.623 616.071 447.863 612.489C448.329 615.696 448.497 619.003 448.359 622.279C449.086 618.337 449.511 614.268 449.622 610.18C450.002 613.042 450.381 615.902 450.761 618.764C450.956 615.868 451.126 604.937 451.126 604.937V0H430.438V604.937H430.452V610.49Z" fill="#333333"/>
<path d="M367.991 615.168C368.175 612.29 368.362 609.384 368.957 606.633C369.679 611.229 369.998 625.899 370.341 631.4C371.026 623.907 371.5 611.295 371.881 606.502C372.409 610.55 372.598 614.698 372.443 618.815C372.908 614.687 373.373 610.558 373.838 606.431C374.104 610.007 374.231 613.605 374.219 617.203C374.915 613.792 375.388 610.278 375.628 606.729C376.093 609.907 376.26 613.182 376.122 616.428C376.847 612.524 377.27 608.493 377.38 604.443C377.758 607.278 378.431 610.558 378.809 613.392C379.004 610.523 378.879 599.249 378.879 599.249V0H366.98V599.249V631.005C367.317 625.726 367.654 620.446 367.991 615.168Z" fill="#333333"/>
<path d="M283.969 610.49C283.964 612.793 283.96 615.097 283.955 617.4C284.025 615.555 284.314 613.731 284.805 612.038C284.825 614.79 284.845 617.543 284.865 620.295C285.062 617.453 285.529 614.656 286.248 612.013C286.412 619.212 286.577 626.41 286.741 633.609C287.124 626.87 287.581 620.14 288.113 613.424C288.246 614.065 288.379 614.708 288.511 615.349C288.522 614.988 288.534 614.625 288.545 614.264C288.631 615.433 288.717 616.602 288.803 617.772C288.964 616.293 289.126 614.811 289.287 613.332C289.477 614.807 289.596 616.304 289.641 617.806C289.693 616.515 289.745 615.224 289.797 613.934C290.105 616.843 290.272 619.786 290.296 622.731C290.451 619.861 290.605 616.993 290.76 614.123C290.811 613.186 290.953 612.056 291.538 611.736C292.161 621.76 292.446 631.831 292.392 641.899C292.834 634.935 293.277 627.971 293.719 621.008C293.904 618.101 294.092 615.168 294.688 612.391C295.412 617.032 295.732 631.84 296.076 637.393C296.764 629.831 297.238 617.098 297.621 612.259C298.151 616.346 298.34 620.532 298.185 624.69C298.651 620.522 299.118 616.356 299.585 612.188C299.852 615.797 299.979 619.43 299.967 623.062C300.666 619.619 301.14 616.071 301.38 612.489C301.846 615.696 302.014 619.003 301.876 622.279C302.603 618.337 303.028 614.268 303.138 610.18C303.518 613.042 303.897 615.902 304.277 618.764C304.472 615.868 304.642 604.937 304.642 604.937V0H283.954V604.937H283.968V610.49H283.969Z" fill="#333333"/>
<path d="M194.542 610.49C194.537 612.793 194.533 615.097 194.528 617.4C194.598 615.555 194.887 613.731 195.378 612.038C195.398 614.79 195.418 617.543 195.438 620.295C195.635 617.453 196.102 614.656 196.821 612.013C196.986 619.212 197.15 626.41 197.314 633.609C197.697 626.87 198.154 620.14 198.686 613.424C198.819 614.065 198.952 614.708 199.084 615.349C199.095 614.988 199.107 614.625 199.118 614.264C199.204 615.433 199.29 616.602 199.376 617.772C199.537 616.293 199.699 614.811 199.86 613.332C200.05 614.807 200.168 616.304 200.214 617.806C200.266 616.515 200.318 615.224 200.37 613.934C200.678 616.843 200.845 619.786 200.869 622.731C201.024 619.861 201.178 616.993 201.333 614.123C201.384 613.186 201.526 612.056 202.111 611.736C202.734 621.76 203.019 631.831 202.966 641.899C203.408 634.935 203.85 627.971 204.293 621.008C204.478 618.101 204.666 615.168 205.262 612.391C205.986 617.032 206.307 631.84 206.65 637.393C207.338 629.831 207.812 617.098 208.195 612.259C208.725 616.346 208.915 620.532 208.759 624.69C209.225 620.522 209.692 616.356 210.159 612.188C210.426 615.797 210.553 619.43 210.541 623.062C211.24 619.619 211.714 616.071 211.954 612.489C212.421 615.696 212.588 619.003 212.45 622.279C213.177 618.337 213.602 614.268 213.712 610.18C214.092 613.042 214.471 615.902 214.851 618.764C215.046 615.868 215.216 604.937 215.216 604.937V0H194.528V604.937H194.542V610.49Z" fill="#333333"/>
<path d="M82.439 615.168C82.623 612.29 82.81 609.384 83.405 606.633C84.127 611.229 84.446 625.899 84.789 631.4C85.474 623.907 85.948 611.295 86.328 606.502C86.856 610.55 87.045 614.698 86.89 618.815C87.355 614.687 87.82 610.558 88.285 606.431C88.551 610.007 88.678 613.605 88.666 617.203C89.362 613.792 89.835 610.278 90.075 606.729C90.54 609.907 90.707 613.182 90.569 616.428C91.294 612.524 91.717 608.493 91.827 604.443C92.205 607.278 92.878 610.558 93.256 613.392C93.451 610.523 93.326 599.249 93.326 599.249V0H81.427V599.249V631.005C81.764 625.726 82.102 620.446 82.439 615.168Z" fill="#333333"/>
<path d="M57.88 615.168C58.064 612.29 58.251 609.384 58.846 606.633C59.568 611.229 59.887 625.899 60.23 631.4C60.915 623.907 61.389 611.295 61.769 606.502C62.297 610.55 62.486 614.698 62.331 618.815C62.796 614.687 63.261 610.558 63.726 606.431C63.992 610.007 64.119 613.605 64.107 617.203C64.803 613.792 65.276 610.278 65.516 606.729C65.981 609.907 66.148 613.182 66.01 616.428C66.735 612.524 67.158 608.493 67.268 604.443C67.646 607.278 68.319 610.558 68.697 613.392C68.892 610.523 68.767 599.249 68.767 599.249V0H56.868V599.249V631.005C57.205 625.726 57.543 620.446 57.88 615.168Z" fill="#333333"/>
<path d="M139.034 615.168C139.218 612.29 139.406 609.384 140 606.633C140.722 611.229 141.041 625.899 141.384 631.4C142.069 623.907 142.543 611.295 142.924 606.502C143.452 610.55 143.641 614.698 143.486 618.815C143.951 614.687 144.416 610.558 144.881 606.431C145.147 610.007 145.274 613.605 145.262 617.203C145.958 613.792 146.431 610.278 146.671 606.729C147.136 609.907 147.303 613.182 147.165 616.428C147.89 612.524 148.313 608.493 148.423 604.443C148.801 607.278 149.474 610.558 149.852 613.392C150.047 610.523 149.922 599.249 149.922 599.249V0H138.023V599.249V631.005C138.359 625.726 138.696 620.446 139.034 615.168Z" fill="#333333"/>
<path d="M242.742 615.168C242.926 612.29 243.114 609.384 243.708 606.633C244.43 611.229 244.749 625.899 245.092 631.4C245.777 623.907 246.251 611.295 246.632 606.502C247.16 610.55 247.349 614.698 247.194 618.815C247.659 614.687 248.124 610.558 248.589 606.431C248.855 610.007 248.982 613.605 248.97 617.203C249.667 613.792 250.139 610.278 250.379 606.729C250.844 609.907 251.011 613.182 250.873 616.428C251.598 612.524 252.021 608.493 252.131 604.443C252.509 607.278 253.182 610.558 253.56 613.392C253.755 610.523 253.63 599.249 253.63 599.249V0H241.73V599.249V631.005C242.067 625.726 242.404 620.446 242.742 615.168Z" fill="#333333"/>
<path d="M169.074 35.8597C168.89 38.9677 168.702 42.1037 168.108 45.0745C167.386 40.1115 167.067 24.2747 166.724 18.3359C166.039 26.4251 165.565 40.0415 165.184 45.2159C164.656 40.8451 164.467 36.3679 164.622 31.9229C164.157 36.3791 163.692 40.8367 163.227 45.2929C162.961 41.4331 162.834 37.5481 162.846 33.6631C162.15 37.3451 161.677 41.1391 161.437 44.9709C160.972 41.5409 160.805 38.0045 160.943 34.5003C160.218 38.7157 159.795 43.0669 159.685 47.4391C159.307 44.3787 158.634 40.8381 158.256 37.7777C158.061 40.8745 158.186 53.0461 158.186 53.0461V700H170.085V53.0461V18.7615C169.749 24.4609 169.412 30.1603 169.074 35.8597Z" fill="#424242"/>
<path d="M253.096 40.9094C253.101 38.423 253.105 35.9352 253.11 33.4488C253.04 35.441 252.751 37.4108 252.26 39.2378C252.24 36.2656 252.22 33.2948 252.2 30.3226C252.003 33.39 251.536 36.4112 250.817 39.2644C250.653 31.493 250.488 23.7202 250.324 15.9488C249.941 23.2246 249.484 30.4892 248.952 37.7412C248.819 37.0482 248.686 36.3552 248.554 35.6622C248.543 36.0528 248.531 36.4434 248.52 36.834C248.434 35.5712 248.348 34.3098 248.262 33.047C248.101 34.6444 247.939 36.2432 247.778 37.8406C247.588 36.2474 247.47 34.6318 247.424 33.0106C247.372 34.405 247.32 35.798 247.268 37.1924C246.96 34.0522 246.793 30.8742 246.769 27.6948C246.614 30.793 246.46 33.8898 246.305 36.988C246.255 37.9988 246.112 39.2182 245.527 39.564C244.904 28.742 244.619 17.8682 244.672 7C244.23 14.518 243.788 22.036 243.345 29.554C243.161 32.6914 242.972 35.8582 242.376 38.8556C241.652 33.8464 241.331 17.8584 240.988 11.8622C240.3 20.0284 239.826 33.7736 239.443 38.997C238.913 34.5856 238.724 30.065 238.879 25.578C238.412 30.0776 237.946 34.5758 237.479 39.0754C237.212 35.1792 237.085 31.2564 237.097 27.3364C236.398 31.0534 235.924 34.8824 235.684 38.7506C235.218 35.2884 235.05 31.7184 235.188 28.1806C234.461 32.4366 234.036 36.8284 233.926 41.2426C233.546 38.1542 233.167 35.0644 232.787 31.976C232.592 35.1022 232.422 46.9028 232.422 46.9028V700H253.11V46.9042H253.096V40.9094Z" fill="#424242"/>
<path d="M342.524 40.9094C342.529 38.423 342.533 35.9352 342.538 33.4488C342.468 35.441 342.179 37.4108 341.688 39.2378C341.668 36.2656 341.648 33.2948 341.628 30.3226C341.431 33.39 340.964 36.4112 340.245 39.2644C340.081 31.493 339.916 23.7202 339.752 15.9488C339.369 23.2246 338.911 30.4892 338.38 37.7412C338.247 37.0482 338.114 36.3552 337.982 35.6622C337.971 36.0528 337.959 36.4434 337.948 36.834C337.862 35.5712 337.776 34.3098 337.69 33.047C337.529 34.6444 337.367 36.2432 337.206 37.8406C337.016 36.2474 336.898 34.6318 336.852 33.0106C336.8 34.405 336.748 35.798 336.696 37.1924C336.388 34.0522 336.221 30.8742 336.197 27.6948C336.042 30.793 335.888 33.8898 335.733 36.988C335.682 37.9988 335.54 39.2182 334.955 39.564C334.332 28.742 334.047 17.8682 334.101 7C333.659 14.518 333.216 22.036 332.774 29.554C332.589 32.6914 332.401 35.8582 331.805 38.8556C331.081 33.8464 330.76 17.8584 330.417 11.8622C329.729 20.0284 329.254 33.7736 328.872 38.997C328.342 34.5856 328.153 30.065 328.308 25.578C327.842 30.0776 327.375 34.5758 326.908 39.0754C326.641 35.1792 326.514 31.2564 326.526 27.3364C325.827 31.0534 325.353 34.8824 325.113 38.7506C324.647 35.2884 324.479 31.7184 324.617 28.1806C323.89 32.4366 323.465 36.8284 323.355 41.2426C322.975 38.1542 322.596 35.0644 322.216 31.976C322.021 35.1022 321.851 46.9028 321.851 46.9028V700H342.539V46.9042H342.525V40.9094H342.524Z" fill="#424242"/>
<path d="M454.627 35.8597C454.443 38.9677 454.256 42.1037 453.661 45.0745C452.939 40.1115 452.62 24.2747 452.277 18.3359C451.592 26.4251 451.118 40.0415 450.737 45.2159C450.209 40.8451 450.02 36.3679 450.175 31.9229C449.71 36.3791 449.245 40.8367 448.78 45.2929C448.514 41.4331 448.387 37.5481 448.399 33.6631C447.702 37.3451 447.23 41.1391 446.99 44.9709C446.525 41.5409 446.358 38.0045 446.496 34.5003C445.771 38.7157 445.348 43.0669 445.238 47.4391C444.86 44.3787 444.187 40.8381 443.809 37.7777C443.614 40.8745 443.739 53.0461 443.739 53.0461V700H455.638V53.0461V18.7615C455.301 24.4609 454.964 30.1603 454.627 35.8597Z" fill="#424242"/>
<path d="M477.142 35.8597C476.958 38.9677 476.77 42.1037 476.176 45.0745C475.454 40.1115 475.135 24.2747 474.792 18.3359C474.107 26.4251 473.633 40.0415 473.252 45.2159C472.724 40.8451 472.535 36.3679 472.69 31.9229C472.225 36.3791 471.76 40.8367 471.295 45.2929C471.029 41.4331 470.902 37.5481 470.914 33.6631C470.218 37.3451 469.745 41.1391 469.505 44.9709C469.04 41.5409 468.873 38.0045 469.011 34.5003C468.286 38.7157 467.863 43.0669 467.753 47.4391C467.375 44.3787 466.702 40.8381 466.324 37.7777C466.129 40.8745 466.254 53.0461 466.254 53.0461V700H478.153V53.0461V18.7615C477.817 24.4609 477.48 30.1603 477.142 35.8597Z" fill="#424242"/>
<path d="M398.032 35.8597C397.848 38.9677 397.66 42.1037 397.066 45.0745C396.344 40.1115 396.025 24.2747 395.682 18.3359C394.997 26.4251 394.523 40.0415 394.142 45.2159C393.614 40.8451 393.425 36.3679 393.58 31.9229C393.115 36.3791 392.65 40.8367 392.185 45.2929C391.919 41.4331 391.792 37.5481 391.804 33.6631C391.108 37.3451 390.635 41.1391 390.395 44.9709C389.93 41.5409 389.763 38.0045 389.901 34.5003C389.176 38.7157 388.753 43.0669 388.643 47.4391C388.265 44.3787 387.592 40.8381 387.214 37.7777C387.019 40.8745 387.144 53.0461 387.144 53.0461V700H399.043V53.0461V18.7615C398.707 24.4609 398.369 30.1603 398.032 35.8597Z" fill="#424242"/>
<path d="M294.324 35.8597C294.14 38.9677 293.952 42.1037 293.358 45.0745C292.636 40.1115 292.317 24.2747 291.974 18.3359C291.289 26.4251 290.815 40.0415 290.434 45.2159C289.906 40.8451 289.717 36.3679 289.872 31.9229C289.407 36.3791 288.942 40.8367 288.477 45.2929C288.211 41.4331 288.084 37.5481 288.096 33.6631C287.4 37.3451 286.927 41.1391 286.687 44.9709C286.222 41.5409 286.055 38.0045 286.193 34.5003C285.468 38.7157 285.045 43.0669 284.935 47.4391C284.557 44.3787 283.884 40.8381 283.506 37.7777C283.311 40.8745 283.436 53.0461 283.436 53.0461V700H295.335V53.0461V18.7615C294.999 24.4609 294.661 30.1603 294.324 35.8597Z" fill="#424242"/>
<path d="M438.1 0V98.0742V103.025V103.944C438.196 106.457 438.293 108.972 438.389 111.485C438.413 109.411 438.574 107.342 438.872 105.312C438.858 110.228 438.844 115.144 438.83 120.06C438.935 116.658 439.135 113.261 439.429 109.882C439.606 114.188 439.783 118.496 439.96 122.802C439.987 119.003 440.309 115.209 440.919 111.509C440.911 115.83 441.002 120.154 441.193 124.467C441.631 120.373 442.069 116.28 442.507 112.188C442.658 113.637 442.809 115.084 442.96 116.533C443.03 115.465 443.1 114.395 443.171 113.327C443.373 114.909 443.505 116.509 443.567 118.115C443.871 115.539 444.176 112.963 444.48 110.387C444.492 116.915 444.751 123.442 445.256 129.93C445.613 122.273 445.57 114.593 445.528 106.919C446.072 111.528 446.444 116.176 446.643 120.84C447.26 117.096 447.687 113.291 447.918 109.46C448.093 110.515 448.267 111.569 448.442 112.622C448.64 111.772 448.753 110.884 448.778 109.991C448.975 110.881 449.098 111.803 449.143 112.734C449.29 111.922 449.438 111.108 449.586 110.296C449.643 111.472 449.7 112.648 449.757 113.826C449.963 112.458 450.17 111.09 450.376 109.722C450.547 114.296 450.717 118.87 450.887 123.444C451.407 119.183 451.772 114.887 451.978 110.573C452.152 111.769 452.326 112.963 452.5 114.159C452.617 112.924 452.735 111.688 452.853 110.453C453.08 111.742 453.306 113.033 453.533 114.323C453.598 112.953 453.662 111.584 453.727 110.216C454.019 111.847 454.187 113.523 454.226 115.205C454.402 113.491 454.577 111.776 454.753 110.062C454.99 114.631 455.226 119.199 455.463 123.767C455.99 119.291 456.405 114.79 456.709 110.274C456.871 112.661 457.034 115.046 457.196 117.433C457.592 115.017 457.913 112.575 458.16 110.118C458.284 111.678 458.408 113.238 458.531 114.797C458.928 113.113 459.105 111.325 459.051 109.55C459.282 110.711 459.514 111.87 459.745 113.03C459.993 111.671 460.095 110.258 460.047 108.857C460.442 109.703 460.73 110.648 460.893 111.633C460.892 109.948 460.892 106.168 460.892 103.025H460.893V98.1932V98.0756V0H438.1Z" fill="#383838"/>
<g opacity="0.64">
<path d="M225.7 556.385V459.445H225.697C225.713 455.833 225.561 452.735 225.418 451.994C225.141 453.386 224.966 454.815 224.897 456.254C224.633 454.289 224.492 452.292 224.476 450.295C224.376 452.224 224.119 454.136 223.711 455.988C223.469 452.584 223.373 449.159 223.423 445.739C223.162 448.738 222.9 451.738 222.639 454.738C222.271 452.297 222.066 449.81 222.027 447.318C221.9 449.509 221.773 451.7 221.645 453.891C221.634 452.495 221.523 451.101 221.315 449.736C220.931 450.843 220.71 452.056 220.67 453.281C220.639 452.01 220.518 450.743 220.31 449.504C219.741 451.076 219.474 452.851 219.542 454.602C219.41 453.383 219.278 452.165 219.145 450.946C218.906 452.054 218.815 453.222 218.879 454.376C218.74 453.064 218.6 451.751 218.461 450.439C218.296 451.657 218.131 452.876 217.966 454.094C217.926 452.694 217.744 451.304 217.429 449.971C217.324 451.378 217.218 452.784 217.113 454.191C216.894 452.654 216.674 451.118 216.455 449.581C216.264 450.953 216.074 452.323 215.883 453.695C215.663 452.091 215.443 450.486 215.223 448.882C214.901 450.092 214.726 451.375 214.708 452.663C214.546 451.398 214.384 450.132 214.223 448.867C213.96 450.152 213.697 451.436 213.435 452.721C213.222 450.667 213.008 448.612 212.795 446.558C212.599 448.612 212.24 450.636 211.727 452.584C211.576 450.159 211.426 447.734 211.275 445.309C210.686 447.665 210.331 450.132 210.224 452.619C210.025 450.083 209.825 447.548 209.626 445.012C209.121 448.228 208.616 451.444 208.111 454.661C207.95 451.881 207.789 449.099 207.627 446.319C206.976 448.86 206.539 451.503 206.328 454.181C206.181 452.721 206.034 451.261 205.888 449.8C205.445 451.597 205.191 453.478 205.137 455.372C204.918 454.248 204.699 453.125 204.48 452.001C204.268 453.345 204.162 454.721 204.165 456.096C203.766 454.885 202.905 452.54 202.81 451.217C202.894 453.365 202.91 460.445 202.91 460.445V469.258H202.81V566.198H202.813C202.797 569.81 202.949 572.908 203.092 573.649C203.369 572.257 203.544 570.828 203.613 569.388C203.877 571.354 204.018 573.35 204.034 575.348C204.134 573.419 204.391 571.507 204.799 569.654C205.04 573.059 205.136 576.484 205.087 579.904C205.348 576.905 205.61 573.905 205.871 570.905C206.239 573.346 206.443 575.833 206.483 578.325C206.61 576.134 206.738 573.943 206.865 571.752C206.876 573.147 206.987 574.542 207.195 575.907C207.579 574.799 207.8 573.587 207.84 572.362C207.871 573.633 207.992 574.9 208.2 576.139C208.769 574.567 209.036 572.793 208.969 571.04C209.101 572.26 209.233 573.478 209.366 574.697C209.605 573.588 209.696 572.421 209.632 571.267C209.771 572.579 209.911 573.891 210.05 575.204C210.215 573.986 210.38 572.767 210.545 571.549C210.585 572.949 210.767 574.339 211.082 575.672C211.187 574.265 211.293 572.859 211.398 571.452C211.617 572.989 211.837 574.525 212.057 576.062C212.248 574.69 212.438 573.32 212.629 571.948C212.849 573.552 213.069 575.156 213.289 576.761C213.611 575.551 213.786 574.267 213.804 572.979C213.966 574.245 214.128 575.511 214.289 576.776C214.552 575.491 214.814 574.207 215.077 572.922C215.29 574.976 215.504 577.031 215.717 579.085C215.913 577.031 216.272 575.007 216.785 573.059C216.936 575.484 217.086 577.909 217.237 580.334C217.826 577.977 218.181 575.511 218.288 573.024C218.487 575.56 218.687 578.095 218.886 580.63C219.391 577.415 219.896 574.197 220.401 570.982C220.562 573.762 220.723 576.542 220.885 579.324C221.536 576.783 221.973 574.14 222.184 571.463C222.331 572.923 222.477 574.384 222.624 575.842C223.067 574.048 223.321 572.165 223.375 570.27C223.594 571.395 223.813 572.517 224.032 573.642C224.244 572.298 224.35 570.921 224.347 569.547C224.746 570.758 225.607 573.103 225.702 574.426C225.618 572.278 225.602 565.198 225.602 565.198V556.385H225.7Z" fill="#383838"/>
<path d="M27.264 296.439C27.24 298.512 27.079 300.581 26.781 302.611C26.795 297.695 26.809 292.779 26.823 287.864C26.718 291.266 26.518 294.662 26.223 298.04C26.046 293.734 25.869 289.428 25.692 285.12C25.665 288.919 25.343 292.713 24.733 296.414C24.741 292.092 24.65 287.769 24.459 283.455C24.021 287.549 23.583 291.642 23.145 295.735C22.994 294.286 22.843 292.838 22.692 291.389C22.622 292.457 22.552 293.527 22.481 294.595C22.279 293.013 22.147 291.413 22.084 289.807C21.78 292.383 21.475 294.959 21.171 297.535C21.16 291.007 20.9 284.48 20.395 277.992C20.038 285.649 20.081 293.329 20.123 301.003C19.579 296.394 19.207 291.746 19.008 287.083C18.391 290.826 17.964 294.631 17.732 298.462C17.558 297.408 17.383 296.353 17.208 295.301C17.01 296.15 16.897 297.038 16.872 297.931C16.675 297.041 16.552 296.118 16.507 295.189C16.359 296.001 16.212 296.814 16.064 297.626C16.007 296.45 15.95 295.273 15.893 294.097C15.687 295.464 15.48 296.832 15.274 298.2C15.104 293.626 14.933 289.052 14.763 284.479C14.243 288.739 13.878 293.035 13.672 297.349C13.498 296.153 13.324 294.959 13.15 293.763C13.033 294.998 12.915 296.234 12.798 297.469C12.571 296.18 12.345 294.889 12.118 293.6C12.053 294.969 11.989 296.338 11.924 297.706C11.632 296.075 11.464 294.399 11.425 292.718C11.249 294.431 11.074 296.146 10.898 297.86C10.661 293.292 10.425 288.723 10.188 284.157C9.66098 288.632 9.24598 293.133 8.94198 297.65C8.77898 295.264 8.61698 292.877 8.45398 290.492C8.05798 292.908 7.73698 295.35 7.48998 297.805C7.36598 296.246 7.24198 294.686 7.11798 293.126C6.72098 294.812 6.54398 296.598 6.59798 298.372C6.36698 297.212 6.13498 296.052 5.90398 294.892C5.65598 296.251 5.55398 297.664 5.60198 299.065C5.20698 298.22 4.91898 297.275 4.75598 296.289C4.75798 298.455 4.75698 304.087 4.75598 307.37V309.73V309.848V505.995V510.945V511.865C4.85198 514.378 4.94898 516.893 5.04498 519.406C5.06898 517.332 5.23098 515.263 5.52798 513.233C5.51398 518.148 5.49998 523.065 5.48598 527.981C5.59098 524.579 5.79098 521.184 6.08598 517.804C6.26298 522.11 6.43998 526.417 6.61698 530.725C6.64398 526.925 6.96598 523.131 7.57598 519.431C7.56798 523.753 7.65898 528.076 7.84998 532.389C8.28798 528.296 8.72598 524.202 9.16398 520.11C9.31498 521.559 9.46598 523.006 9.61698 524.455C9.68698 523.387 9.75698 522.318 9.82798 521.249C10.03 522.831 10.162 524.432 10.224 526.037C10.528 523.461 10.833 520.885 11.137 518.309C11.148 524.838 11.408 531.364 11.913 537.852C12.27 530.195 12.227 522.515 12.185 514.842C12.729 519.45 13.101 524.098 13.3 528.762C13.917 525.018 14.344 521.213 14.576 517.383C14.751 518.437 14.925 519.491 15.1 520.544C15.298 519.694 15.411 518.806 15.436 517.913C15.633 518.804 15.756 519.726 15.801 520.656C15.949 519.844 16.096 519.03 16.244 518.218C16.301 519.394 16.358 520.57 16.415 521.748C16.621 520.38 16.828 519.012 17.034 517.644C17.204 522.218 17.375 526.792 17.545 531.366C18.065 527.106 18.43 522.809 18.636 518.496C18.81 519.691 18.984 520.885 19.158 522.081C19.276 520.846 19.393 519.61 19.51 518.375C19.736 519.665 19.963 520.955 20.19 522.245C20.255 520.876 20.319 519.506 20.384 518.139C20.676 519.77 20.844 521.445 20.883 523.127C21.059 521.413 21.234 519.698 21.41 517.985C21.647 522.553 21.883 527.121 22.12 531.689C22.647 527.213 23.062 522.712 23.366 518.196C23.529 520.582 23.691 522.969 23.854 525.354C24.25 522.938 24.571 520.496 24.817 518.041C24.941 519.6 25.065 521.16 25.189 522.719C25.586 521.035 25.763 519.247 25.709 517.474C25.94 518.634 26.172 519.793 26.403 520.954C26.651 519.595 26.753 518.182 26.705 516.781C27.1 517.626 27.388 518.571 27.551 519.557C27.55 517.871 27.55 514.091 27.55 510.948H27.551V506.115V505.998V309.851V307.373V303.981C27.457 301.466 27.361 298.953 27.264 296.439Z" fill="#383838"/>
<path d="M494.795 488.975C494.518 490.367 494.343 491.796 494.274 493.235C494.01 491.27 493.869 489.273 493.853 487.276C493.753 489.205 493.496 491.119 493.088 492.969C492.846 489.565 492.75 486.14 492.8 482.72C492.539 485.719 492.277 488.719 492.016 491.719C491.649 489.278 491.444 486.791 491.405 484.299C491.278 486.49 491.15 488.681 491.023 490.872C491.012 489.476 490.901 488.082 490.693 486.717C490.309 487.824 490.088 489.037 490.048 490.262C490.017 488.991 489.896 487.724 489.688 486.485C489.119 488.057 488.852 489.831 488.92 491.583C488.788 490.364 488.656 489.146 488.523 487.927C488.284 489.035 488.193 490.203 488.257 491.357C488.118 490.045 487.978 488.732 487.839 487.42C487.674 488.638 487.509 489.857 487.344 491.075C487.304 489.675 487.122 488.285 486.807 486.952C486.702 488.359 486.596 489.765 486.491 491.172C486.272 489.635 486.052 488.099 485.832 486.562C485.641 487.934 485.451 489.304 485.26 490.676C485.04 489.072 484.82 487.467 484.6 485.863C484.278 487.073 484.103 488.356 484.085 489.644C483.923 488.379 483.761 487.113 483.6 485.848C483.337 487.133 483.075 488.417 482.812 489.702C482.599 487.648 482.385 485.593 482.172 483.539C481.976 485.593 481.617 487.617 481.104 489.565C480.954 487.14 480.803 484.715 480.652 482.29C480.063 484.646 479.708 487.113 479.601 489.6C479.402 487.064 479.202 484.529 479.003 481.993C478.498 485.209 477.993 488.426 477.488 491.642C477.327 488.862 477.166 486.081 477.004 483.3C476.353 485.841 475.916 488.484 475.705 491.161C475.558 489.7 475.411 488.24 475.265 486.781C474.822 488.578 474.568 490.459 474.514 492.353C474.295 491.229 474.076 490.106 473.857 488.982C473.645 490.326 473.539 491.702 473.542 493.077C473.143 491.866 472.282 489.521 472.187 488.198C472.271 490.346 472.287 497.426 472.287 497.426V700H495.079V496.425H495.076C495.09 492.813 494.938 489.714 494.795 488.975Z" fill="#383838"/>
<path d="M375.727 488.975C375.45 490.367 375.275 491.796 375.206 493.235C374.942 491.27 374.801 489.273 374.785 487.276C374.685 489.205 374.428 491.119 374.02 492.969C373.778 489.565 373.682 486.14 373.732 482.72C373.471 485.719 373.209 488.719 372.948 491.719C372.58 489.278 372.376 486.791 372.336 484.299C372.209 486.49 372.082 488.681 371.954 490.872C371.943 489.476 371.832 488.082 371.624 486.717C371.24 487.824 371.019 489.037 370.979 490.262C370.948 488.991 370.827 487.724 370.619 486.485C370.05 488.057 369.783 489.831 369.85 491.583C369.718 490.364 369.586 489.146 369.453 487.927C369.214 489.035 369.123 490.203 369.187 491.357C369.048 490.045 368.908 488.732 368.769 487.42C368.604 488.638 368.439 489.857 368.274 491.075C368.234 489.675 368.052 488.285 367.737 486.952C367.632 488.359 367.526 489.765 367.421 491.172C367.202 489.635 366.982 488.099 366.762 486.562C366.571 487.934 366.381 489.304 366.19 490.676C365.97 489.072 365.75 487.467 365.531 485.863C365.209 487.073 365.034 488.356 365.016 489.644C364.854 488.379 364.692 487.113 364.531 485.848C364.268 487.133 364.006 488.417 363.743 489.702C363.53 487.648 363.316 485.593 363.103 483.539C362.907 485.593 362.548 487.617 362.035 489.565C361.884 487.14 361.734 484.715 361.583 482.29C360.994 484.646 360.639 487.113 360.532 489.6C360.333 487.064 360.133 484.529 359.934 481.993C359.429 485.209 358.924 488.426 358.419 491.642C358.258 488.862 358.097 486.081 357.935 483.3C357.284 485.841 356.847 488.484 356.636 491.161C356.489 489.7 356.343 488.24 356.196 486.781C355.753 488.578 355.499 490.459 355.445 492.353C355.226 491.229 355.007 490.106 354.788 488.982C354.576 490.326 354.47 491.702 354.473 493.077C354.074 491.866 353.213 489.521 353.118 488.198C353.202 490.346 353.218 497.426 353.218 497.426V700H376.01V496.425H376.007C376.022 492.813 375.87 489.714 375.727 488.975Z" fill="#383838"/>
<path d="M140.373 488.975C140.096 490.367 139.921 491.796 139.852 493.235C139.588 491.27 139.447 489.273 139.431 487.276C139.331 489.205 139.074 491.119 138.666 492.969C138.425 489.565 138.328 486.14 138.378 482.72C138.117 485.719 137.855 488.719 137.594 491.719C137.226 489.278 137.021 486.791 136.982 484.299C136.855 486.49 136.727 488.681 136.6 490.872C136.589 489.476 136.478 488.082 136.27 486.717C135.886 487.824 135.665 489.037 135.625 490.262C135.594 488.991 135.473 487.724 135.265 486.485C134.696 488.057 134.429 489.831 134.497 491.583C134.365 490.364 134.233 489.146 134.1 487.927C133.861 489.035 133.77 490.203 133.834 491.357C133.695 490.045 133.555 488.732 133.416 487.42C133.251 488.638 133.086 489.857 132.921 491.075C132.881 489.675 132.699 488.285 132.384 486.952C132.279 488.359 132.173 489.765 132.068 491.172C131.848 489.635 131.629 488.099 131.409 486.562C131.218 487.934 131.028 489.304 130.837 490.676C130.617 489.072 130.397 487.467 130.177 485.863C129.855 487.073 129.68 488.356 129.662 489.644C129.5 488.379 129.338 487.113 129.177 485.848C128.914 487.133 128.652 488.417 128.389 489.702C128.176 487.648 127.962 485.593 127.749 483.539C127.553 485.593 127.194 487.617 126.681 489.565C126.531 487.14 126.38 484.715 126.229 482.29C125.64 484.646 125.285 487.113 125.178 489.6C124.979 487.064 124.779 484.529 124.58 481.993C124.075 485.209 123.57 488.426 123.064 491.642C122.903 488.862 122.742 486.081 122.581 483.3C121.93 485.841 121.493 488.484 121.282 491.161C121.135 489.7 120.988 488.24 120.842 486.781C120.399 488.578 120.145 490.459 120.091 492.353C119.872 491.229 119.653 490.106 119.434 488.982C119.221 490.326 119.116 491.702 119.119 493.077C118.72 491.866 117.859 489.521 117.764 488.198C117.848 490.346 117.864 497.426 117.864 497.426V700H140.656V496.425H140.653C140.668 492.813 140.516 489.714 140.373 488.975Z" fill="#383838"/>
<path d="M80.281 488.975C80.003 490.367 79.829 491.796 79.76 493.235C79.496 491.27 79.355 489.273 79.339 487.276C79.239 489.205 78.982 491.119 78.574 492.969C78.333 489.565 78.236 486.14 78.286 482.72C78.025 485.719 77.763 488.719 77.502 491.719C77.134 489.278 76.929 486.791 76.89 484.299C76.763 486.49 76.635 488.681 76.508 490.872C76.497 489.476 76.386 488.082 76.178 486.717C75.794 487.824 75.573 489.037 75.533 490.262C75.502 488.991 75.381 487.724 75.172 486.485C74.603 488.057 74.336 489.831 74.404 491.583C74.272 490.364 74.139 489.146 74.007 487.927C73.768 489.035 73.677 490.203 73.741 491.357C73.602 490.045 73.462 488.732 73.323 487.42C73.158 488.638 72.993 489.857 72.828 491.075C72.788 489.675 72.606 488.285 72.291 486.952C72.186 488.359 72.08 489.765 71.975 491.172C71.755 489.635 71.536 488.099 71.316 486.562C71.125 487.934 70.935 489.304 70.744 490.676C70.524 489.072 70.304 487.467 70.084 485.863C69.762 487.073 69.587 488.356 69.569 489.644C69.407 488.379 69.245 487.113 69.084 485.848C68.821 487.133 68.558 488.417 68.296 489.702C68.083 487.648 67.869 485.593 67.656 483.539C67.46 485.593 67.101 487.617 66.588 489.565C66.437 487.14 66.287 484.715 66.136 482.29C65.547 484.646 65.192 487.113 65.085 489.6C64.886 487.064 64.686 484.529 64.487 481.993C63.982 485.209 63.477 488.426 62.972 491.642C62.811 488.862 62.65 486.081 62.488 483.3C61.837 485.841 61.4 488.484 61.189 491.161C61.042 489.7 60.896 488.24 60.749 486.781C60.306 488.578 60.052 490.459 59.998 492.353C59.779 491.229 59.56 490.106 59.341 488.982C59.129 490.326 59.023 491.702 59.026 493.077C58.627 491.866 57.766 489.521 57.671 488.198C57.755 490.346 57.771 497.426 57.771 497.426V700H80.563V496.425H80.56C80.576 492.813 80.424 489.714 80.281 488.975Z" fill="#383838"/>
<path d="M297.529 485.556V217.318H297.526C297.542 207.323 297.39 198.75 297.247 196.703C296.97 200.553 296.795 204.509 296.726 208.492C296.462 203.055 296.321 197.53 296.305 192.002C296.205 197.338 295.947 202.633 295.54 207.756C295.298 198.335 295.202 188.86 295.252 179.396C294.991 187.695 294.729 195.996 294.468 204.296C294.101 197.541 293.896 190.66 293.857 183.764C293.73 189.826 293.602 195.889 293.475 201.951C293.464 198.09 293.353 194.232 293.145 190.452C292.761 193.515 292.54 196.871 292.5 200.26C292.469 196.743 292.348 193.238 292.14 189.809C291.571 194.159 291.304 199.07 291.372 203.918C291.24 200.546 291.108 197.173 290.975 193.801C290.736 196.868 290.645 200.102 290.709 203.291C290.57 199.661 290.43 196.029 290.291 192.399C290.126 195.77 289.961 199.143 289.796 202.514C289.756 198.642 289.574 194.792 289.259 191.106C289.154 194.998 289.048 198.89 288.943 202.782C288.724 198.53 288.504 194.278 288.284 190.025C288.093 193.82 287.903 197.616 287.712 201.41C287.492 196.97 287.272 192.529 287.052 188.09C286.73 191.437 286.555 194.989 286.537 198.552C286.375 195.049 286.213 191.548 286.052 188.045C285.789 191.6 285.527 195.154 285.264 198.709C285.051 193.025 284.837 187.34 284.624 181.656C284.428 187.338 284.069 192.94 283.556 198.33C283.406 191.621 283.255 184.912 283.104 178.202C282.515 184.722 282.16 191.547 282.053 198.428C281.854 191.412 281.654 184.397 281.455 177.381C280.95 186.281 280.445 195.18 279.939 204.079C279.778 196.385 279.617 188.691 279.456 180.996C278.805 188.027 278.368 195.342 278.157 202.749C278.01 198.71 277.863 194.67 277.717 190.631C277.274 195.6 277.02 200.809 276.966 206.049C276.747 202.94 276.528 199.83 276.309 196.721C276.097 200.441 275.991 204.247 275.994 208.053C275.595 204.702 274.734 198.212 274.639 194.552C274.723 200.495 274.739 220.083 274.739 220.083V244.468H274.639V512.705H274.642C274.626 522.7 274.778 531.273 274.921 533.32C275.198 529.47 275.373 525.514 275.442 521.531C275.706 526.968 275.847 532.493 275.863 538.021C275.963 532.685 276.22 527.39 276.628 522.267C276.87 531.688 276.966 541.163 276.916 550.627C277.177 542.328 277.439 534.027 277.7 525.727C278.068 532.482 278.273 539.363 278.312 546.259C278.439 540.197 278.567 534.134 278.694 528.072C278.705 531.933 278.816 535.791 279.024 539.571C279.408 536.508 279.629 533.152 279.669 529.763C279.7 533.28 279.821 536.785 280.029 540.214C280.598 535.864 280.865 530.954 280.797 526.105C280.929 529.477 281.061 532.85 281.194 536.222C281.433 533.155 281.524 529.922 281.46 526.732C281.599 530.362 281.739 533.994 281.878 537.624C282.043 534.253 282.208 530.88 282.373 527.509C282.413 531.381 282.595 535.231 282.91 538.917C283.015 535.025 283.121 531.133 283.226 527.241C283.445 531.493 283.665 535.745 283.885 539.998C284.076 536.203 284.266 532.407 284.457 528.613C284.677 533.053 284.897 537.494 285.116 541.933C285.438 538.586 285.613 535.034 285.631 531.471C285.793 534.972 285.955 538.475 286.116 541.978C286.379 538.423 286.642 534.869 286.904 531.314C287.117 536.998 287.331 542.683 287.544 548.367C287.74 542.685 288.099 537.083 288.612 531.693C288.763 538.402 288.913 545.111 289.064 551.82C289.653 545.3 290.008 538.475 290.115 531.594C290.314 538.609 290.514 545.625 290.713 552.64C291.218 543.74 291.723 534.842 292.229 525.942C292.39 533.637 292.551 541.331 292.713 549.025C293.364 541.995 293.801 534.68 294.012 527.272C294.159 531.311 294.305 535.352 294.452 539.392C294.895 534.423 295.149 529.214 295.203 523.974C295.422 527.083 295.641 530.193 295.86 533.302C296.072 529.582 296.178 525.776 296.175 521.97C296.574 525.321 297.435 531.811 297.53 535.471C297.446 529.528 297.43 509.939 297.43 509.939V485.554H297.529V485.556Z" fill="#383838"/>
<path d="M495.077 179.973V83.0327H495.074C495.09 79.4207 494.938 76.3225 494.795 75.5819C494.518 76.9735 494.343 78.4029 494.274 79.8421C494.01 77.8765 493.869 75.8801 493.853 73.8823C493.753 75.8115 493.496 77.7239 493.088 79.5761C492.846 76.1713 492.75 72.7469 492.8 69.3267C492.539 72.3269 492.277 75.3257 492.016 78.3259C491.649 75.8843 491.444 73.3979 491.405 70.9059C491.278 73.0969 491.15 75.2879 491.023 77.4789C491.012 76.0831 490.901 74.6887 490.693 73.3237C490.309 74.4311 490.088 75.6435 490.048 76.8685C490.017 75.5973 489.896 74.3303 489.688 73.0913C489.119 74.6635 488.852 76.4373 488.92 78.1901C488.788 76.9707 488.656 75.7527 488.523 74.5333C488.284 75.6421 488.193 76.8097 488.257 77.9633C488.118 76.6515 487.978 75.3397 487.839 74.0265C487.674 75.2445 487.509 76.4639 487.344 77.6819C487.304 76.2819 487.122 74.8917 486.807 73.5589C486.702 74.9659 486.596 76.3715 486.491 77.7785C486.272 76.2413 486.052 74.7055 485.832 73.1683C485.641 74.5403 485.451 75.9109 485.26 77.2829C485.04 75.6785 484.82 74.0741 484.6 72.4697C484.278 73.6793 484.103 74.9631 484.085 76.2511C483.923 74.9855 483.761 73.7199 483.6 72.4543C483.337 73.7381 483.075 75.0233 482.812 76.3085C482.599 74.2547 482.385 72.1995 482.172 70.1457C481.976 72.1995 481.617 74.2239 481.104 76.1713C480.954 73.7465 480.803 71.3217 480.652 68.8969C480.063 71.2531 479.708 73.7199 479.601 76.2063C479.402 73.6709 479.202 71.1355 479.003 68.6001C478.498 71.8159 477.993 75.0331 477.488 78.2489C477.327 75.4685 477.166 72.6881 477.004 69.9063C476.353 72.4473 475.916 75.0905 475.705 77.7687C475.558 76.3085 475.411 74.8483 475.265 73.3895C474.822 75.1857 474.568 77.0673 474.514 78.9615C474.295 77.8373 474.076 76.7145 473.857 75.5903C473.645 76.9343 473.539 78.3105 473.542 79.6853C473.143 78.4743 472.282 76.1293 472.187 74.8063C472.271 76.9539 472.287 84.0337 472.287 84.0337V92.8467H472.187V189.787H472.19C472.174 193.399 472.326 196.497 472.469 197.238C472.746 195.846 472.921 194.417 472.99 192.978C473.254 194.943 473.395 196.94 473.411 198.937C473.511 197.008 473.768 195.094 474.176 193.244C474.418 196.648 474.514 200.073 474.464 203.493C474.725 200.493 474.987 197.494 475.248 194.494C475.616 196.935 475.82 199.422 475.86 201.914C475.987 199.723 476.115 197.532 476.242 195.341C476.253 196.737 476.364 198.131 476.572 199.496C476.956 198.388 477.177 197.176 477.217 195.951C477.248 197.222 477.369 198.489 477.577 199.728C478.146 198.156 478.413 196.382 478.345 194.629C478.477 195.849 478.609 197.067 478.742 198.286C478.981 197.177 479.072 196.01 479.008 194.856C479.147 196.168 479.287 197.48 479.426 198.793C479.591 197.575 479.756 196.356 479.921 195.138C479.961 196.536 480.143 197.928 480.458 199.261C480.563 197.854 480.669 196.448 480.774 195.041C480.993 196.578 481.213 198.114 481.433 199.651C481.624 198.279 481.814 196.909 482.005 195.537C482.225 197.141 482.445 198.745 482.664 200.35C482.986 199.14 483.161 197.857 483.179 196.569C483.341 197.834 483.503 199.1 483.664 200.365C483.927 199.081 484.19 197.796 484.452 196.511C484.665 198.565 484.879 200.62 485.092 202.674C485.288 200.62 485.647 198.596 486.16 196.648C486.311 199.073 486.461 201.498 486.612 203.923C487.201 201.566 487.556 199.1 487.663 196.613C487.862 199.149 488.062 201.684 488.261 204.219C488.766 201.004 489.271 197.788 489.776 194.571C489.937 197.351 490.098 200.133 490.26 202.913C490.911 200.372 491.348 197.729 491.559 195.052C491.706 196.512 491.852 197.973 491.999 199.432C492.442 197.635 492.696 195.754 492.75 193.859C492.969 194.984 493.188 196.106 493.407 197.231C493.619 195.887 493.725 194.51 493.722 193.136C494.121 194.347 494.982 196.692 495.077 198.015C494.993 195.867 494.977 188.787 494.977 188.787V179.974L495.077 179.973Z" fill="#383838"/>
<path d="M455.178 389.735V292.795H455.175C455.191 289.183 455.039 286.084 454.896 285.344C454.619 286.735 454.444 288.165 454.375 289.604C454.111 287.638 453.97 285.642 453.954 283.644C453.854 285.573 453.597 287.486 453.189 289.338C452.948 285.933 452.851 282.509 452.901 279.089C452.64 282.089 452.378 285.088 452.117 288.088C451.749 285.646 451.544 283.16 451.505 280.668C451.378 282.859 451.251 285.05 451.123 287.241C451.112 285.845 451.001 284.451 450.793 283.086C450.409 284.193 450.188 285.405 450.148 286.63C450.117 285.359 449.996 284.092 449.788 282.853C449.219 284.425 448.952 286.201 449.02 287.952C448.888 286.733 448.756 285.515 448.623 284.295C448.384 285.404 448.293 286.572 448.357 287.725C448.218 286.413 448.078 285.102 447.939 283.788C447.774 285.006 447.609 286.226 447.444 287.444C447.404 286.045 447.222 284.654 446.907 283.321C446.801 284.728 446.696 286.133 446.591 287.54C446.371 286.003 446.152 284.467 445.932 282.93C445.741 284.302 445.551 285.673 445.36 287.045C445.14 285.44 444.92 283.836 444.7 282.232C444.378 283.441 444.203 284.725 444.185 286.013C444.023 284.747 443.861 283.482 443.7 282.216C443.437 283.501 443.174 284.785 442.912 286.07C442.699 284.017 442.485 281.961 442.272 279.908C442.076 281.961 441.717 283.986 441.204 285.933C441.053 283.508 440.903 281.084 440.752 278.659C440.163 281.015 439.808 283.482 439.701 285.968C439.502 283.433 439.302 280.897 439.103 278.362C438.598 281.578 438.093 284.794 437.588 288.011C437.427 285.23 437.266 282.45 437.104 279.668C436.453 282.209 436.016 284.852 435.805 287.529C435.658 286.069 435.511 284.609 435.365 283.15C434.922 284.946 434.668 286.828 434.614 288.722C434.395 287.598 434.176 286.475 433.957 285.351C433.745 286.695 433.639 288.071 433.642 289.446C433.243 288.235 432.382 285.89 432.287 284.567C432.371 286.714 432.387 293.794 432.387 293.794V302.607H432.287V399.547H432.29C432.274 403.159 432.426 406.258 432.569 406.998C432.847 405.607 433.021 404.177 433.09 402.738C433.354 404.704 433.495 406.7 433.511 408.698C433.611 406.769 433.868 404.856 434.276 403.004C434.517 406.409 434.614 409.833 434.564 413.253C434.825 410.253 435.087 407.254 435.348 404.254C435.716 406.696 435.92 409.182 435.96 411.674C436.087 409.483 436.214 407.292 436.342 405.101C436.353 406.497 436.464 407.891 436.672 409.256C437.056 408.149 437.277 406.937 437.317 405.712C437.348 406.983 437.469 408.25 437.677 409.489C438.246 407.917 438.513 406.141 438.446 404.39C438.578 405.609 438.71 406.827 438.843 408.047C439.082 406.938 439.173 405.77 439.109 404.617C439.248 405.929 439.388 407.24 439.527 408.554C439.692 407.336 439.857 406.116 440.022 404.898C440.062 406.297 440.244 407.688 440.559 409.021C440.664 407.614 440.77 406.209 440.875 404.802C441.095 406.339 441.314 407.875 441.534 409.412C441.725 408.04 441.915 406.669 442.106 405.297C442.326 406.902 442.546 408.506 442.765 410.11C443.087 408.901 443.262 407.617 443.28 406.329C443.442 407.595 443.604 408.86 443.765 410.126C444.028 408.841 444.29 407.557 444.553 406.272C444.766 408.325 444.98 410.381 445.193 412.434C445.389 410.381 445.748 408.356 446.261 406.409C446.412 408.834 446.562 411.258 446.713 413.683C447.302 411.327 447.657 408.86 447.764 406.374C447.963 408.909 448.163 411.445 448.362 413.98C448.867 410.764 449.372 407.548 449.877 404.331C450.038 407.112 450.199 409.892 450.361 412.674C451.012 410.133 451.449 407.49 451.66 404.811C451.807 406.272 451.953 407.732 452.1 409.192C452.543 407.396 452.797 405.514 452.851 403.62C453.07 404.744 453.289 405.867 453.508 406.991C453.72 405.647 453.826 404.271 453.823 402.896C454.222 404.107 455.083 406.452 455.178 407.775C455.094 405.628 455.078 398.548 455.078 398.548V389.735H455.178Z" fill="#383838"/>
<path d="M159.828 169.473V72.5326H159.825C159.841 68.9206 159.689 65.8224 159.546 65.0818C159.269 66.4734 159.094 67.9028 159.025 69.342C158.761 67.3764 158.62 65.38 158.604 63.3822C158.504 65.3114 158.247 67.2238 157.839 69.076C157.597 65.6712 157.501 62.2468 157.551 58.8266C157.29 61.8254 157.028 64.8256 156.767 67.8258C156.4 65.3842 156.195 62.8978 156.155 60.4058C156.028 62.5968 155.9 64.7878 155.773 66.9788C155.762 65.583 155.651 64.1886 155.443 62.8236C155.059 63.931 154.838 65.1434 154.798 66.3684C154.767 65.0972 154.646 63.8302 154.438 62.5912C153.869 64.1634 153.602 65.9386 153.67 67.69C153.538 66.4706 153.406 65.2526 153.273 64.0332C153.034 65.142 152.943 66.311 153.007 67.4632C152.868 66.1514 152.728 64.8396 152.589 63.5264C152.424 64.7444 152.259 65.9638 152.094 67.1818C152.054 65.7818 151.872 64.3916 151.557 63.0588C151.452 64.4658 151.346 65.8714 151.241 67.2784C151.022 65.7412 150.802 64.2054 150.582 62.6682C150.391 64.0402 150.201 65.4108 150.01 66.7828C149.79 65.1784 149.57 63.574 149.35 61.9696C149.028 63.1792 148.853 64.463 148.835 65.751C148.673 64.4854 148.511 63.2198 148.35 61.9542C148.087 63.2394 147.824 64.5232 147.562 65.8084C147.349 63.7532 147.135 61.6994 146.922 59.6456C146.726 61.6994 146.367 63.7238 145.854 65.6712C145.703 63.2464 145.553 60.8216 145.402 58.3968C144.813 60.753 144.458 63.2198 144.351 65.7062C144.152 63.1708 143.952 60.6354 143.753 58.1C143.248 61.3158 142.743 64.5316 142.238 67.7488C142.077 64.9684 141.916 62.188 141.754 59.4062C141.103 61.9472 140.666 64.5904 140.455 67.2672C140.308 65.807 140.162 64.3468 140.015 62.888C139.572 64.6828 139.318 66.5658 139.264 68.46C139.045 67.3358 138.826 66.213 138.607 65.0888C138.395 66.4328 138.289 67.809 138.292 69.1838C137.893 67.9728 137.032 65.6278 136.937 64.3048C137.021 66.4524 137.037 73.5322 137.037 73.5322V82.3452H136.937V179.285H136.94C136.924 182.897 137.076 185.996 137.219 186.736C137.496 185.345 137.671 183.915 137.74 182.476C138.004 184.442 138.145 186.438 138.161 188.436C138.261 186.507 138.518 184.594 138.926 182.742C139.167 186.147 139.264 189.571 139.214 192.991C139.475 189.991 139.737 186.992 139.998 183.992C140.366 186.434 140.571 188.92 140.61 191.412C140.737 189.221 140.865 187.03 140.992 184.839C141.003 186.235 141.114 187.629 141.322 188.994C141.706 187.887 141.927 186.675 141.967 185.45C141.998 186.721 142.119 187.988 142.327 189.227C142.896 187.655 143.163 185.881 143.095 184.128C143.227 185.347 143.359 186.565 143.492 187.785C143.731 186.676 143.822 185.507 143.758 184.355C143.897 185.667 144.037 186.978 144.176 188.292C144.341 187.074 144.506 185.854 144.671 184.636C144.711 186.035 144.893 187.426 145.208 188.759C145.313 187.352 145.419 185.947 145.524 184.54C145.744 186.077 145.963 187.613 146.183 189.15C146.374 187.778 146.564 186.407 146.755 185.035C146.975 186.64 147.195 188.244 147.415 189.848C147.737 188.639 147.912 187.355 147.93 186.067C148.092 187.333 148.254 188.598 148.415 189.864C148.678 188.579 148.941 187.295 149.203 186.01C149.416 188.063 149.63 190.119 149.843 192.172C150.039 190.119 150.398 188.094 150.911 186.147C151.062 188.572 151.212 190.996 151.363 193.421C151.952 191.065 152.307 188.598 152.414 186.112C152.613 188.647 152.813 191.183 153.012 193.718C153.517 190.502 154.022 187.286 154.528 184.069C154.689 186.85 154.85 189.631 155.012 192.412C155.663 189.871 156.1 187.228 156.311 184.549C156.458 186.01 156.605 187.47 156.751 188.93C157.194 187.134 157.448 185.252 157.502 183.358C157.721 184.482 157.94 185.605 158.159 186.729C158.372 185.385 158.477 184.009 158.474 182.634C158.873 183.845 159.734 186.19 159.829 187.513C159.745 185.366 159.729 178.286 159.729 178.286V169.473H159.828Z" fill="#383838"/>
<path d="M30.237 133.397V36.4558H30.234C30.25 32.8438 30.098 29.7456 29.955 29.005C29.677 30.3966 29.503 31.826 29.434 33.2652C29.17 31.2996 29.029 29.3032 29.013 27.3054C28.913 29.2346 28.656 31.1484 28.248 32.9992C28.007 29.5944 27.91 26.17 27.96 22.7498C27.699 25.7486 27.437 28.7488 27.176 31.749C26.808 29.3074 26.603 26.821 26.564 24.329C26.437 26.52 26.309 28.711 26.182 30.902C26.171 29.5062 26.06 28.1118 25.852 26.7468C25.468 27.8542 25.247 29.0666 25.207 30.2916C25.176 29.0204 25.055 27.7534 24.847 26.5144C24.278 28.0866 24.011 29.8604 24.078 31.6132C23.946 30.3938 23.814 29.1758 23.681 27.9564C23.442 29.0652 23.351 30.2328 23.415 31.3864C23.276 30.0746 23.136 28.7614 22.997 27.4496C22.832 28.6676 22.667 29.887 22.502 31.105C22.461 29.705 22.28 28.3148 21.965 26.982C21.86 28.389 21.754 29.7946 21.649 31.2016C21.429 29.6644 21.21 28.1286 20.99 26.5914C20.799 27.9634 20.609 29.334 20.418 30.706C20.198 29.1016 19.978 27.4972 19.758 25.8928C19.436 27.1024 19.261 28.3862 19.243 29.6742C19.081 28.4086 18.919 27.143 18.758 25.8774C18.495 27.1612 18.232 28.4464 17.97 29.7316C17.757 27.6778 17.543 25.6226 17.33 23.5688C17.134 25.6226 16.775 27.647 16.262 29.5944C16.111 27.1696 15.961 24.7448 15.81 22.32C15.221 24.6762 14.866 27.143 14.759 29.6294C14.56 27.094 14.36 24.5586 14.161 22.0232C13.656 25.239 13.151 28.4562 12.646 31.672C12.485 28.8916 12.324 26.1112 12.162 23.3294C11.511 25.8704 11.074 28.5136 10.863 31.1904C10.716 29.7302 10.57 28.27 10.423 26.8112C9.97997 28.6074 9.72597 30.489 9.67197 32.3832C9.45297 31.259 9.23397 30.1362 9.01497 29.012C8.80197 30.356 8.69697 31.7322 8.69997 33.107C8.30097 31.896 7.43997 29.551 7.34497 28.228C7.42897 30.3756 7.44497 37.4554 7.44497 37.4554V46.2684H7.34497V143.209H7.34797C7.33197 146.821 7.48397 149.919 7.62697 150.659C7.90497 149.268 8.07897 147.838 8.14797 146.399C8.41197 148.365 8.55297 150.361 8.56897 152.359C8.66897 150.43 8.92597 148.517 9.33397 146.665C9.57497 150.07 9.67197 153.494 9.62197 156.915C9.88297 153.914 10.145 150.916 10.406 147.915C10.773 150.357 10.978 152.843 11.017 155.335C11.144 153.144 11.272 150.953 11.399 148.762C11.41 150.158 11.521 151.553 11.729 152.918C12.113 151.81 12.334 150.598 12.374 149.373C12.405 150.644 12.526 151.911 12.734 153.15C13.303 151.578 13.57 149.804 13.502 148.051C13.634 149.271 13.766 150.489 13.899 151.708C14.138 150.599 14.229 149.432 14.165 148.278C14.304 149.59 14.444 150.902 14.583 152.215C14.748 150.997 14.913 149.777 15.078 148.559C15.118 149.958 15.3 151.35 15.615 152.682C15.72 151.275 15.826 149.87 15.931 148.463C16.151 150 16.37 151.536 16.59 153.073C16.781 151.701 16.971 150.33 17.162 148.958C17.382 150.563 17.602 152.167 17.822 153.772C18.144 152.562 18.319 151.278 18.337 149.99C18.499 151.256 18.66 152.521 18.822 153.787C19.085 152.503 19.348 151.218 19.61 149.933C19.823 151.987 20.037 154.042 20.25 156.096C20.446 154.042 20.805 152.017 21.318 150.07C21.469 152.495 21.619 154.92 21.77 157.344C22.359 154.988 22.714 152.521 22.821 150.035C23.02 152.57 23.22 155.106 23.419 157.641C23.924 154.425 24.429 151.21 24.934 147.992C25.095 150.773 25.256 153.555 25.418 156.335C26.069 153.794 26.506 151.151 26.717 148.473C26.864 149.933 27.01 151.393 27.157 152.852C27.6 151.056 27.854 149.174 27.908 147.28C28.127 148.404 28.346 149.527 28.565 150.651C28.777 149.307 28.883 147.931 28.88 146.556C29.279 147.767 30.14 150.112 30.235 151.435C30.151 149.287 30.135 142.208 30.135 142.208V133.395H30.237V133.397Z" fill="#383838"/>
<path d="M302.817 0V107.874V112.825V113.744C302.913 116.257 303.01 118.772 303.106 121.285C303.129 119.211 303.292 117.142 303.589 115.112C303.575 120.028 303.561 124.944 303.547 129.86C303.652 126.458 303.852 123.061 304.147 119.682C304.324 123.988 304.501 128.296 304.678 132.602C304.705 128.803 305.027 125.009 305.637 121.309C305.629 125.63 305.72 129.954 305.911 134.267C306.349 130.173 306.787 126.08 307.225 121.988C307.376 123.437 307.527 124.884 307.677 126.333C307.747 125.265 307.818 124.195 307.888 123.127C308.09 124.709 308.222 126.309 308.285 127.915C308.589 125.339 308.894 122.763 309.198 120.187C309.21 126.715 309.469 133.242 309.974 139.73C310.331 132.073 310.288 124.393 310.246 116.719C310.79 121.328 311.162 125.976 311.361 130.64C311.978 126.896 312.405 123.091 312.637 119.26C312.812 120.315 312.986 121.369 313.161 122.422C313.359 121.572 313.472 120.684 313.497 119.791C313.694 120.681 313.817 121.603 313.862 122.534C314.01 121.722 314.157 120.908 314.305 120.096C314.362 121.272 314.419 122.448 314.476 123.626C314.682 122.258 314.889 120.89 315.095 119.522C315.266 124.096 315.436 128.67 315.606 133.244C316.126 128.983 316.491 124.687 316.697 120.373C316.871 121.569 317.045 122.763 317.219 123.959C317.336 122.724 317.454 121.488 317.571 120.253C317.798 121.542 318.024 122.833 318.251 124.123C318.316 122.753 318.381 121.384 318.445 120.016C318.737 121.647 318.905 123.323 318.944 125.005C319.12 123.291 319.295 121.576 319.471 119.862C319.708 124.431 319.944 128.999 320.181 133.567C320.707 129.091 321.123 124.59 321.427 120.074C321.59 122.461 321.752 124.846 321.915 127.233C322.311 124.817 322.632 122.375 322.878 119.918C323.002 121.478 323.126 123.038 323.25 124.597C323.647 122.913 323.824 121.125 323.77 119.35C324.001 120.511 324.233 121.67 324.464 122.83C324.712 121.471 324.814 120.058 324.766 118.657C325.161 119.503 325.449 120.448 325.612 121.433C325.611 119.748 325.611 115.968 325.611 112.825H325.612V107.993V107.876V0H302.817Z" fill="#383838"/>
<path d="M364.317 0V46.9742V51.9246V52.8444C364.413 55.3574 364.51 57.8718 364.606 60.3848C364.629 58.3114 364.792 56.2422 365.089 54.2122C365.075 59.1276 365.061 64.0444 365.047 68.9598C365.152 65.5578 365.352 62.1614 365.647 58.7832C365.824 63.0896 366.001 67.3974 366.178 71.7038C366.205 67.9042 366.527 64.1102 367.137 60.4086C367.129 64.7304 367.22 69.0536 367.411 73.367C367.849 69.2734 368.287 65.1798 368.725 61.0876C368.876 62.5366 369.027 63.9842 369.177 65.4332C369.247 64.3636 369.318 63.2954 369.388 62.2272C369.59 63.8092 369.722 65.4094 369.785 67.0152C370.089 64.4392 370.394 61.8632 370.698 59.2872C370.71 65.8154 370.969 72.3422 371.474 78.8298C371.831 71.1732 371.788 63.4928 371.746 55.8194C372.29 60.4282 372.662 65.0762 372.861 69.7396C373.478 65.996 373.905 62.1908 374.137 58.3604C374.312 59.4146 374.486 60.4688 374.661 61.523C374.859 60.6732 374.972 59.7856 374.997 58.8924C375.194 59.7828 375.317 60.704 375.362 61.635C375.51 60.823 375.657 60.0096 375.805 59.1976C375.862 60.3736 375.919 61.551 375.976 62.727C376.182 61.3592 376.389 59.9914 376.595 58.6236C376.766 63.1974 376.936 67.7712 377.106 72.345C377.626 68.0848 377.991 63.7882 378.197 59.4748C378.371 60.6704 378.545 61.8646 378.719 63.0602C378.836 61.8254 378.954 60.5892 379.071 59.3544C379.298 60.6438 379.524 61.9346 379.751 63.224C379.816 61.8548 379.881 60.4856 379.945 59.1178C380.237 60.7488 380.405 62.4246 380.444 64.106C380.62 62.3924 380.795 60.6774 380.971 58.9638C381.208 63.532 381.444 68.1002 381.681 72.6684C382.207 68.1926 382.623 63.6916 382.927 59.1752C383.09 61.5608 383.252 63.9478 383.415 66.3334C383.811 63.917 384.132 61.4754 384.378 59.0198C384.502 60.5794 384.626 62.139 384.75 63.6986C385.147 62.0144 385.324 60.2266 385.27 58.4528C385.501 59.6134 385.733 60.7726 385.964 61.9332C386.212 60.5738 386.314 59.1612 386.266 57.7598C386.661 58.6054 386.949 59.5504 387.112 60.536C387.111 58.8504 387.111 55.0704 387.111 51.9274H387.112V47.096V46.9784V0H364.317Z" fill="#383838"/>
<path d="M64.53 0V98.0742V103.025V103.944C64.627 106.457 64.723 108.972 64.819 111.485C64.843 109.411 65.005 107.342 65.302 105.312C65.288 110.228 65.274 115.144 65.26 120.06C65.365 116.658 65.565 113.261 65.86 109.882C66.037 114.188 66.214 118.496 66.391 122.802C66.418 119.003 66.74 115.209 67.35 111.509C67.342 115.83 67.433 120.154 67.624 124.467C68.062 120.373 68.5 116.28 68.938 112.188C69.089 113.637 69.24 115.084 69.391 116.533C69.461 115.465 69.531 114.395 69.602 113.327C69.804 114.909 69.936 116.509 69.998 118.115C70.302 115.539 70.607 112.963 70.911 110.387C70.922 116.915 71.182 123.442 71.687 129.93C72.044 122.273 72.001 114.593 71.959 106.919C72.503 111.528 72.875 116.176 73.074 120.84C73.691 117.096 74.118 113.291 74.35 109.46C74.525 110.515 74.699 111.569 74.874 112.622C75.072 111.772 75.185 110.884 75.21 109.991C75.407 110.881 75.53 111.803 75.575 112.734C75.722 111.922 75.87 111.108 76.018 110.296C76.075 111.472 76.132 112.648 76.189 113.826C76.395 112.458 76.602 111.09 76.808 109.722C76.979 114.296 77.149 118.87 77.319 123.444C77.839 119.183 78.204 114.887 78.41 110.573C78.584 111.769 78.758 112.963 78.932 114.159C79.05 112.924 79.167 111.688 79.285 110.453C79.512 111.742 79.738 113.033 79.964 114.323C80.029 112.953 80.093 111.584 80.158 110.216C80.45 111.847 80.618 113.523 80.657 115.205C80.833 113.491 81.008 111.776 81.184 110.062C81.421 114.631 81.657 119.199 81.894 123.767C82.42 119.291 82.836 114.79 83.14 110.274C83.302 112.661 83.465 115.046 83.628 117.433C84.024 115.017 84.345 112.575 84.592 110.118C84.716 111.678 84.84 113.238 84.963 114.797C85.36 113.113 85.537 111.325 85.483 109.55C85.714 110.711 85.946 111.87 86.177 113.03C86.425 111.671 86.527 110.258 86.479 108.857C86.874 109.703 87.162 110.648 87.325 111.633C87.324 109.948 87.324 106.168 87.324 103.025L87.325 98.1932V98.0756V0H64.53Z" fill="#383838"/>
<path d="M167.533 0V53.7166V58.667V59.5868C167.629 62.0998 167.726 64.6142 167.823 67.1272C167.846 65.0538 168.008 62.9846 168.306 60.9546C168.292 65.87 168.278 70.7868 168.264 75.7022C168.369 72.3002 168.569 68.9038 168.864 65.5242C169.041 69.8306 169.218 74.1384 169.395 78.4448C169.422 74.6452 169.744 70.8512 170.354 67.1496C170.346 71.4714 170.437 75.7946 170.628 80.108C171.066 76.0144 171.504 71.9208 171.942 67.8272C172.093 69.2762 172.244 70.7238 172.395 72.1728C172.465 71.1046 172.536 70.035 172.606 68.9668C172.808 70.5488 172.94 72.149 173.002 73.7548C173.306 71.1788 173.611 68.6028 173.915 66.0282C173.927 72.5564 174.186 79.0832 174.691 85.5708C175.048 77.9142 175.005 70.2338 174.963 62.5604C175.507 67.1692 175.879 71.8172 176.078 76.4806C176.695 72.737 177.122 68.9318 177.353 65.1014C177.528 66.1556 177.702 67.2098 177.877 68.264C178.075 67.4142 178.188 66.5266 178.212 65.6334C178.409 66.5238 178.532 67.4464 178.577 68.376C178.725 67.564 178.872 66.7506 179.02 65.9386C179.077 67.1146 179.134 68.292 179.191 69.468C179.397 68.1002 179.604 66.7324 179.81 65.3646C179.98 69.9384 180.151 74.5122 180.321 79.086C180.841 74.8258 181.206 70.5292 181.412 66.2158C181.586 67.4114 181.76 68.6056 181.934 69.8012C182.052 68.5664 182.169 67.3302 182.286 66.0954C182.513 67.3848 182.739 68.6756 182.966 69.965C183.031 68.5958 183.096 67.2266 183.16 65.8588C183.452 67.4898 183.62 69.1656 183.659 70.847C183.835 69.1334 184.01 67.4184 184.186 65.7048C184.423 70.273 184.659 74.8412 184.896 79.408C185.423 74.9322 185.838 70.4312 186.142 65.9148C186.305 68.3004 186.467 70.6874 186.63 73.073C187.026 70.6566 187.347 68.215 187.593 65.7594C187.717 67.319 187.841 68.8786 187.965 70.4368C188.362 68.7526 188.539 66.9648 188.485 65.191C188.716 66.3516 188.948 67.5108 189.179 68.6714C189.427 67.312 189.529 65.8994 189.481 64.498C189.876 65.3436 190.164 66.2886 190.327 67.2742C190.326 65.5886 190.326 61.8086 190.326 58.6656L190.327 53.8342V53.7166V0H167.533Z" fill="#383838"/>
</g>
<path d="M106.628 0H85.94V700H106.628V0Z" fill="#424242"/>
<path d="M321.849 0H308.124V700H321.849V0Z" fill="#424242"/>
<path d="M194.528 0H180.803V700H194.528V0Z" fill="#424242"/>
<path d="M430.47 0H416.745V700H430.47V0Z" fill="#424242"/>
<path d="M50.453 0H29.765V700H50.453V0Z" fill="#424242"/>
</g>
</svg>
